<?xml version="1.0" encoding="utf-8" standalone="no"?>
<!DOCTYPE svg PUBLIC "-//W3C//DTD SVG 1.1//EN"
  "http://www.w3.org/Graphics/SVG/1.1/DTD/svg11.dtd">
<svg xmlns:xlink="http://www.w3.org/1999/xlink" width="460.8pt" height="345.6pt" viewBox="0 0 460.8 345.6" xmlns="http://www.w3.org/2000/svg" version="1.1">
 <metadata>
  <rdf:RDF xmlns:dc="http://purl.org/dc/elements/1.1/" xmlns:cc="http://creativecommons.org/ns#" xmlns:rdf="http://www.w3.org/1999/02/22-rdf-syntax-ns#">
   <cc:Work>
    <dc:type rdf:resource="http://purl.org/dc/dcmitype/StillImage"/>
    <dc:date>2024-02-15T03:42:19.435397</dc:date>
    <dc:format>image/svg+xml</dc:format>
    <dc:creator>
     <cc:Agent>
      <dc:title>Matplotlib v3.8.2, https://matplotlib.org/</dc:title>
     </cc:Agent>
    </dc:creator>
   </cc:Work>
  </rdf:RDF>
 </metadata>
 <defs>
  <style type="text/css">*{stroke-linejoin: round; stroke-linecap: butt}</style>
 </defs>
 <g id="figure_1">
  <g id="patch_1">
   <path d="M 0 345.6 
L 460.8 345.6 
L 460.8 0 
L 0 0 
z
" style="fill: #ffffff"/>
  </g>
  <g id="axes_1">
   <g id="patch_2">
    <path d="M 57.6 307.584 
L 414.72 307.584 
L 414.72 41.472 
L 57.6 41.472 
z
" style="fill: #ffffff"/>
   </g>
   <g id="matplotlib.axis_1">
    <g id="xtick_1">
     <g id="line2d_1">
      <defs>
       <path id="me6e3bf2a37" d="M 0 0 
L 0 3.5 
" style="stroke: #000000; stroke-width: 0.8"/>
      </defs>
      <g>
       <use xlink:href="#me6e3bf2a37" x="73.832727" y="210.816" style="stroke: #000000; stroke-width: 0.8"/>
      </g>
     </g>
     <g id="text_1">
      <text style="font: 10px 'DejaVu Sans', 'Bitstream Vera Sans', 'Computer Modern Sans Serif', 'Lucida Grande', 'Verdana', 'Geneva', 'Lucid', 'Arial', 'Helvetica', 'Avant Garde', sans-serif; text-anchor: middle" x="73.832727" y="225.414437" transform="rotate(-0 73.832727 225.414437)">-6</text>
     </g>
    </g>
    <g id="xtick_2">
     <g id="line2d_2">
      <g>
       <use xlink:href="#me6e3bf2a37" x="127.941818" y="210.816" style="stroke: #000000; stroke-width: 0.8"/>
      </g>
     </g>
     <g id="text_2">
      <text style="font: 10px 'DejaVu Sans', 'Bitstream Vera Sans', 'Computer Modern Sans Serif', 'Lucida Grande', 'Verdana', 'Geneva', 'Lucid', 'Arial', 'Helvetica', 'Avant Garde', sans-serif; text-anchor: middle" x="127.941818" y="225.414437" transform="rotate(-0 127.941818 225.414437)">-4</text>
     </g>
    </g>
    <g id="xtick_3">
     <g id="line2d_3">
      <g>
       <use xlink:href="#me6e3bf2a37" x="182.050909" y="210.816" style="stroke: #000000; stroke-width: 0.8"/>
      </g>
     </g>
     <g id="text_3">
      <text style="font: 10px 'DejaVu Sans', 'Bitstream Vera Sans', 'Computer Modern Sans Serif', 'Lucida Grande', 'Verdana', 'Geneva', 'Lucid', 'Arial', 'Helvetica', 'Avant Garde', sans-serif; text-anchor: middle" x="182.050909" y="225.414437" transform="rotate(-0 182.050909 225.414437)">-2</text>
     </g>
    </g>
    <g id="xtick_4">
     <g id="line2d_4">
      <g>
       <use xlink:href="#me6e3bf2a37" x="236.16" y="210.816" style="stroke: #000000; stroke-width: 0.8"/>
      </g>
     </g>
     <g id="text_4">
      <text style="font: 10px 'DejaVu Sans', 'Bitstream Vera Sans', 'Computer Modern Sans Serif', 'Lucida Grande', 'Verdana', 'Geneva', 'Lucid', 'Arial', 'Helvetica', 'Avant Garde', sans-serif; text-anchor: middle" x="236.16" y="225.414437" transform="rotate(-0 236.16 225.414437)">0</text>
     </g>
    </g>
    <g id="xtick_5">
     <g id="line2d_5">
      <g>
       <use xlink:href="#me6e3bf2a37" x="290.269091" y="210.816" style="stroke: #000000; stroke-width: 0.8"/>
      </g>
     </g>
     <g id="text_5">
      <text style="font: 10px 'DejaVu Sans', 'Bitstream Vera Sans', 'Computer Modern Sans Serif', 'Lucida Grande', 'Verdana', 'Geneva', 'Lucid', 'Arial', 'Helvetica', 'Avant Garde', sans-serif; text-anchor: middle" x="290.269091" y="225.414437" transform="rotate(-0 290.269091 225.414437)">2</text>
     </g>
    </g>
    <g id="xtick_6">
     <g id="line2d_6">
      <g>
       <use xlink:href="#me6e3bf2a37" x="344.378182" y="210.816" style="stroke: #000000; stroke-width: 0.8"/>
      </g>
     </g>
     <g id="text_6">
      <text style="font: 10px 'DejaVu Sans', 'Bitstream Vera Sans', 'Computer Modern Sans Serif', 'Lucida Grande', 'Verdana', 'Geneva', 'Lucid', 'Arial', 'Helvetica', 'Avant Garde', sans-serif; text-anchor: middle" x="344.378182" y="225.414437" transform="rotate(-0 344.378182 225.414437)">4</text>
     </g>
    </g>
    <g id="xtick_7">
     <g id="line2d_7">
      <g>
       <use xlink:href="#me6e3bf2a37" x="398.487273" y="210.816" style="stroke: #000000; stroke-width: 0.8"/>
      </g>
     </g>
     <g id="text_7">
      <text style="font: 10px 'DejaVu Sans', 'Bitstream Vera Sans', 'Computer Modern Sans Serif', 'Lucida Grande', 'Verdana', 'Geneva', 'Lucid', 'Arial', 'Helvetica', 'Avant Garde', sans-serif; text-anchor: middle" x="398.487273" y="225.414437" transform="rotate(-0 398.487273 225.414437)">6</text>
     </g>
    </g>
   </g>
   <g id="matplotlib.axis_2">
    <g id="ytick_1">
     <g id="line2d_8">
      <defs>
       <path id="m89083fbc8c" d="M 0 0 
L -3.5 0 
" style="stroke: #000000; stroke-width: 0.8"/>
      </defs>
      <g>
       <use xlink:href="#m89083fbc8c" x="236.16" y="307.584" style="stroke: #000000; stroke-width: 0.8"/>
      </g>
     </g>
     <g id="text_8">
      <text style="font: 10px 'DejaVu Sans', 'Bitstream Vera Sans', 'Computer Modern Sans Serif', 'Lucida Grande', 'Verdana', 'Geneva', 'Lucid', 'Arial', 'Helvetica', 'Avant Garde', sans-serif; text-anchor: end" x="229.16" y="311.383219" transform="rotate(-0 229.16 311.383219)">-4</text>
     </g>
    </g>
    <g id="ytick_2">
     <g id="line2d_9">
      <g>
       <use xlink:href="#m89083fbc8c" x="236.16" y="259.2" style="stroke: #000000; stroke-width: 0.8"/>
      </g>
     </g>
     <g id="text_9">
      <text style="font: 10px 'DejaVu Sans', 'Bitstream Vera Sans', 'Computer Modern Sans Serif', 'Lucida Grande', 'Verdana', 'Geneva', 'Lucid', 'Arial', 'Helvetica', 'Avant Garde', sans-serif; text-anchor: end" x="229.16" y="262.999219" transform="rotate(-0 229.16 262.999219)">-2</text>
     </g>
    </g>
    <g id="ytick_3">
     <g id="line2d_10">
      <g>
       <use xlink:href="#m89083fbc8c" x="236.16" y="210.816" style="stroke: #000000; stroke-width: 0.8"/>
      </g>
     </g>
     <g id="text_10">
      <text style="font: 10px 'DejaVu Sans', 'Bitstream Vera Sans', 'Computer Modern Sans Serif', 'Lucida Grande', 'Verdana', 'Geneva', 'Lucid', 'Arial', 'Helvetica', 'Avant Garde', sans-serif; text-anchor: end" x="229.16" y="214.615219" transform="rotate(-0 229.16 214.615219)">0</text>
     </g>
    </g>
    <g id="ytick_4">
     <g id="line2d_11">
      <g>
       <use xlink:href="#m89083fbc8c" x="236.16" y="162.432" style="stroke: #000000; stroke-width: 0.8"/>
      </g>
     </g>
     <g id="text_11">
      <text style="font: 10px 'DejaVu Sans', 'Bitstream Vera Sans', 'Computer Modern Sans Serif', 'Lucida Grande', 'Verdana', 'Geneva', 'Lucid', 'Arial', 'Helvetica', 'Avant Garde', sans-serif; text-anchor: end" x="229.16" y="166.231219" transform="rotate(-0 229.16 166.231219)">2</text>
     </g>
    </g>
    <g id="ytick_5">
     <g id="line2d_12">
      <g>
       <use xlink:href="#m89083fbc8c" x="236.16" y="114.048" style="stroke: #000000; stroke-width: 0.8"/>
      </g>
     </g>
     <g id="text_12">
      <text style="font: 10px 'DejaVu Sans', 'Bitstream Vera Sans', 'Computer Modern Sans Serif', 'Lucida Grande', 'Verdana', 'Geneva', 'Lucid', 'Arial', 'Helvetica', 'Avant Garde', sans-serif; text-anchor: end" x="229.16" y="117.847219" transform="rotate(-0 229.16 117.847219)">4</text>
     </g>
    </g>
    <g id="ytick_6">
     <g id="line2d_13">
      <g>
       <use xlink:href="#m89083fbc8c" x="236.16" y="65.664" style="stroke: #000000; stroke-width: 0.8"/>
      </g>
     </g>
     <g id="text_13">
      <text style="font: 10px 'DejaVu Sans', 'Bitstream Vera Sans', 'Computer Modern Sans Serif', 'Lucida Grande', 'Verdana', 'Geneva', 'Lucid', 'Arial', 'Helvetica', 'Avant Garde', sans-serif; text-anchor: end" x="229.16" y="69.463219" transform="rotate(-0 229.16 69.463219)">6</text>
     </g>
    </g>
   </g>
   <g id="line2d_14">
    <path d="M 230.898564 346.6 
L 232.081429 331.248244 
L 233.712858 311.966553 
L 235.344288 294.924172 
L 236.975712 280.336092 
L 238.607142 268.202198 
L 240.238571 258.3076 
L 241.870001 250.304755 
L 243.501431 243.815522 
L 245.132861 238.499658 
L 246.764291 234.081088 
L 248.395721 230.347692 
L 250.027151 227.140538 
L 251.658581 224.341558 
L 253.290011 221.862879 
L 254.921441 219.63862 
L 258.1843 215.765469 
L 261.44716 212.445741 
L 264.71002 209.510453 
L 267.972878 206.851718 
L 272.867171 203.231919 
L 277.76146 199.922977 
L 284.28718 195.837542 
L 290.812897 192.006699 
L 298.970051 187.458281 
L 310.39006 181.384072 
L 323.441494 174.706779 
L 341.387226 165.802531 
L 364.227245 154.739848 
L 395.224411 139.99291 
L 398.487273 138.452094 
L 398.487273 138.452094 
" clip-path="url(#p41cbe6abb3)" style="fill: none; stroke: #000000; stroke-width: 2; stroke-linecap: square"/>
   </g>
   <g id="line2d_15">
    <path d="M 229.844462 346.6 
L 232.081429 327.03703 
L 233.712858 313.975255 
L 235.344288 301.954121 
L 236.975712 291.01307 
L 238.607142 281.151985 
L 240.238571 272.331549 
L 241.870001 264.479795 
L 243.501431 257.50319 
L 245.132861 251.298357 
L 246.764291 245.761972 
L 248.395721 240.797336 
L 250.027151 236.317979 
L 251.658581 232.248881 
L 253.290011 228.526264 
L 256.552871 221.915237 
L 259.815731 216.155374 
L 263.078591 211.019013 
L 266.341451 206.347985 
L 269.604309 202.030842 
L 274.498598 196.049942 
L 279.392891 190.50496 
L 284.28718 185.275881 
L 290.812897 178.659929 
L 298.970051 170.794812 
L 307.127199 163.241762 
L 316.915777 154.461896 
L 329.967217 143.082502 
L 346.281512 129.200911 
L 365.858669 112.859056 
L 390.330125 92.728664 
L 398.487273 86.06856 
L 398.487273 86.06856 
" clip-path="url(#p41cbe6abb3)" style="fill: none; stroke-dasharray: 2,3.3; stroke-dashoffset: 0; stroke: #000000; stroke-width: 2"/>
   </g>
   <g id="line2d_16">
    <path d="M 170.534314 346.6 
L 173.349949 332.912238 
L 176.612811 318.753399 
L 179.875672 306.166425 
L 183.138531 294.968031 
L 186.401392 284.995103 
L 189.664251 276.102436 
L 192.927109 268.16052 
L 196.189971 261.053686 
L 199.452829 254.678457 
L 202.715691 248.94198 
L 205.978549 243.760725 
L 209.241409 239.059235 
L 212.504269 234.769041 
L 215.767129 230.827668 
L 219.029989 227.177721 
L 223.924279 222.133919 
L 228.818569 217.461522 
L 236.975712 210.086485 
L 245.132861 202.644621 
L 250.027151 197.865954 
L 253.290011 194.454279 
L 256.552871 190.804332 
L 259.815731 186.862959 
L 263.078591 182.572765 
L 266.341451 177.871275 
L 269.604309 172.69002 
L 272.867171 166.953543 
L 276.130029 160.578314 
L 279.392891 153.47148 
L 282.655749 145.529564 
L 285.918608 136.636897 
L 289.181469 126.663969 
L 292.444328 115.465575 
L 295.707189 102.878601 
L 298.970051 88.719762 
L 302.232906 72.7829 
L 305.495768 54.835871 
L 308.758629 34.617347 
L 312.021485 11.832938 
L 313.699343 -1 
L 313.699343 -1 
" clip-path="url(#p41cbe6abb3)" style="fill: none; stroke-dasharray: 7.4,3.2; stroke-dashoffset: 0; stroke: #000000; stroke-width: 2"/>
   </g>
   <g id="line2d_17">
    <path d="M 220.974921 346.6 
L 235.344288 218.110041 
L 236.975712 210.086596 
L 398.487273 65.664 
L 398.487273 65.664 
" clip-path="url(#p41cbe6abb3)" style="fill: none; stroke-dasharray: 12.8,3.2,2,3.2; stroke-dashoffset: 0; stroke: #000000; stroke-width: 2"/>
   </g>
   <g id="patch_3">
    <path d="M 236.16 307.584 
L 236.16 41.472 
" style="fill: none; stroke: #000000; stroke-width: 0.8; stroke-linejoin: miter; stroke-linecap: square"/>
   </g>
   <g id="patch_4">
    <path d="M 236.16 307.584 
L 236.16 41.472 
" style="fill: none; stroke: #000000; stroke-width: 0.8; stroke-linejoin: miter; stroke-linecap: square"/>
   </g>
   <g id="patch_5">
    <path d="M 57.6 210.816 
L 414.72 210.816 
" style="fill: none; stroke: #000000; stroke-width: 0.8; stroke-linejoin: miter; stroke-linecap: square"/>
   </g>
   <g id="patch_6">
    <path d="M 57.6 210.816 
L 414.72 210.816 
" style="fill: none; stroke: #000000; stroke-width: 0.8; stroke-linejoin: miter; stroke-linecap: square"/>
   </g>
   <g id="legend_1">
    <g id="patch_7">
     <path d="M 64.6 108.1845 
L 270.907812 108.1845 
Q 272.907812 108.1845 272.907812 106.1845 
L 272.907812 48.472 
Q 272.907812 46.472 270.907812 46.472 
L 64.6 46.472 
Q 62.6 46.472 62.6 48.472 
L 62.6 106.1845 
Q 62.6 108.1845 64.6 108.1845 
z
" style="fill: #ffffff; opacity: 0.8; stroke: #cccccc; stroke-linejoin: miter"/>
    </g>
    <g id="line2d_18">
     <path d="M 66.6 54.570438 
L 76.6 54.570438 
L 86.6 54.570438 
" style="fill: none; stroke: #000000; stroke-width: 2; stroke-linecap: square"/>
    </g>
    <g id="text_14">
     <text style="font: 10px 'DejaVu Sans', 'Bitstream Vera Sans', 'Computer Modern Sans Serif', 'Lucida Grande', 'Verdana', 'Geneva', 'Lucid', 'Arial', 'Helvetica', 'Avant Garde', sans-serif; text-anchor: start" x="94.6" y="58.070438" transform="rotate(-0 94.6 58.070438)">Hyperbola ($\alpha$=0.1, $\beta$=1, $\gamma$=1, $\delta$=1)</text>
    </g>
    <g id="line2d_19">
     <path d="M 66.6 69.248563 
L 76.6 69.248563 
L 86.6 69.248563 
" style="fill: none; stroke-dasharray: 2,3.3; stroke-dashoffset: 0; stroke: #000000; stroke-width: 2"/>
    </g>
    <g id="text_15">
     <text style="font: 10px 'DejaVu Sans', 'Bitstream Vera Sans', 'Computer Modern Sans Serif', 'Lucida Grande', 'Verdana', 'Geneva', 'Lucid', 'Arial', 'Helvetica', 'Avant Garde', sans-serif; text-anchor: start" x="94.6" y="72.748563" transform="rotate(-0 94.6 72.748563)">Hyperbola ($\alpha$=0.4, $\beta$=3, $\gamma$=5, $\delta$=5)</text>
    </g>
    <g id="line2d_20">
     <path d="M 66.6 83.926688 
L 76.6 83.926688 
L 86.6 83.926688 
" style="fill: none; stroke-dasharray: 7.4,3.2; stroke-dashoffset: 0; stroke: #000000; stroke-width: 2"/>
    </g>
    <g id="text_16">
     <text style="font: 10px 'DejaVu Sans', 'Bitstream Vera Sans', 'Computer Modern Sans Serif', 'Lucida Grande', 'Verdana', 'Geneva', 'Lucid', 'Arial', 'Helvetica', 'Avant Garde', sans-serif; text-anchor: start" x="94.6" y="87.426688" transform="rotate(-0 94.6 87.426688)">Arcsinh</text>
    </g>
    <g id="line2d_21">
     <path d="M 66.6 98.604813 
L 76.6 98.604813 
L 86.6 98.604813 
" style="fill: none; stroke-dasharray: 12.8,3.2,2,3.2; stroke-dashoffset: 0; stroke: #000000; stroke-width: 2"/>
    </g>
    <g id="text_17">
     <text style="font: 10px 'DejaVu Sans', 'Bitstream Vera Sans', 'Computer Modern Sans Serif', 'Lucida Grande', 'Verdana', 'Geneva', 'Lucid', 'Arial', 'Helvetica', 'Avant Garde', sans-serif; text-anchor: start" x="94.6" y="102.104813" transform="rotate(-0 94.6 102.104813)">Leaky ReLU</text>
    </g>
   </g>
  </g>
 </g>
 <defs>
  <clipPath id="p41cbe6abb3">
   <rect x="57.6" y="41.472" width="357.12" height="266.112"/>
  </clipPath>
 </defs>
</svg>
